<svg xmlns:xlink="http://www.w3.org/1999/xlink" xmlns="http://www.w3.org/2000/svg" viewBox="0 0 350 130" preserveAspectRatio="xMidYMid meet" class="css-1uxicuq" id="fgdgaghe" width="350"  height="130" ><defs id="SvgjsDefs1182"></defs><g id="SvgjsG1183" featurekey="symbolContainer" transform="matrix(1,0,0,1,20,20)" fill="#FFFFFF"><rect xmlns="http://www.w3.org/2000/svg" width="110" height="110" rx="10" ry="10" fill="#FFFFFF"></rect></g><g id="SvgjsG1184" featurekey="symbolFeature-0" transform="matrix(0.546875,0,0,0.546875,40.10937502607703,40)" fill="#000000"><title xmlns="http://www.w3.org/2000/svg">brokerage, candle, candles, candlestick, forex, trading</title><path xmlns="http://www.w3.org/2000/svg" d="M58,88.08H35.71a2,2,0,0,1-2-2v-57a2,2,0,0,1,2-2H58a2,2,0,0,1,2,2v57A2,2,0,0,1,58,88.08Zm-20.28-4H56v-53H37.71Z"></path><path xmlns="http://www.w3.org/2000/svg" d="M46.85,30.92a2,2,0,0,1-2-2V2a2,2,0,1,1,4,0v27A2,2,0,0,1,46.85,30.92Z"></path><path xmlns="http://www.w3.org/2000/svg" d="M46.85,107.34a2,2,0,0,1-2-2V86.08a2,2,0,0,1,4,0v19.25A2,2,0,0,1,46.85,107.34Z"></path><path xmlns="http://www.w3.org/2000/svg" d="M125.8,76.22H103.52a2,2,0,0,1-2-2V44.68a2,2,0,0,1,2-2H125.8a2,2,0,0,1,2,2V74.22A2,2,0,0,1,125.8,76.22Zm-20.28-4H123.8V46.68H105.52Z"></path><path xmlns="http://www.w3.org/2000/svg" d="M114.66,46.51a2,2,0,0,1-2-2V23.61a2,2,0,0,1,4,0V44.51A2,2,0,0,1,114.66,46.51Z"></path><path xmlns="http://www.w3.org/2000/svg" d="M114.66,101.77a2,2,0,0,1-2-2V74.22a2,2,0,0,1,4,0V99.77A2,2,0,0,1,114.66,101.77Z"></path><path xmlns="http://www.w3.org/2000/svg" d="M91.89,43.43H69.61a2,2,0,0,1-2-2v-24a2,2,0,0,1,2-2H91.89a2,2,0,0,1,2,2v24A2,2,0,0,1,91.89,43.43Zm-20.28-4H89.89v-20H71.61Z"></path><path xmlns="http://www.w3.org/2000/svg" d="M80.75,19.3a2,2,0,0,1-2-2V2a2,2,0,1,1,4,0V17.3A2,2,0,0,1,80.75,19.3Z"></path><path xmlns="http://www.w3.org/2000/svg" d="M80.75,80.12a2,2,0,0,1-2-2V41.43a2,2,0,0,1,4,0V78.12A2,2,0,0,1,80.75,80.12Z"></path><path xmlns="http://www.w3.org/2000/svg" d="M24.08,109H1.8a2,2,0,0,1-2-2V90.5a2,2,0,0,1,2-2H24.08a2,2,0,0,1,2,2V107A2,2,0,0,1,24.08,109ZM3.8,105H22.08V92.5H3.8Z"></path><path xmlns="http://www.w3.org/2000/svg" d="M12.94,128a2,2,0,0,1-2-2V107a2,2,0,0,1,4,0V126A2,2,0,0,1,12.94,128Z"></path><path xmlns="http://www.w3.org/2000/svg" d="M12.94,92.5a2,2,0,0,1-2-2V37.32a2,2,0,0,1,4,0V90.5A2,2,0,0,1,12.94,92.5Z"></path></g><g id="SvgjsG1185" featurekey="nameFeature-0" transform="matrix(1.373154736892502,0,0,1.373154736892502,146.1551677843349,29.522143157289978)" fill="#FFFFFF"><path d="M23.4 25 c0 3.6 -2.6 6.2 -6.6 6.2 l-8.8 0 l0 8.8 l-5.2 0 l0 -28 l14 0 c4 0 6.6 2.6 6.6 6.2 l0 6.8 z M8 16.4 l0 10.4 l7.4 0 c1.6 0 2.8 -1.2 2.8 -2.6 l0 -5.2 c0 -1.4 -1.2 -2.6 -2.8 -2.6 l-7.4 0 z M28.69 12 l5.2 0 l0 23.6 l13.6 0 l0 4.4 l-18.8 0 l0 -28 z M67.38 12 l5.2 0 l0 22.2 c0 3.6 -2.6 6.2 -6.6 6.2 l-8 0 c-4 0 -6.6 -2.6 -6.6 -6.2 l0 -22.2 l5.2 0 l0 21.4 c0 1.4 1.2 2.6 2.8 2.6 l5.2 0 c1.6 0 2.8 -1.2 2.8 -2.6 l0 -21.4 z M89.86999999999999 16.4 l0 23.6 l-5.2 0 l0 -23.6 l-8 0 l0 -4.4 l21.2 0 l0 3 l-1.4 1.4 l-6.6 0 z M117.96 12 l5.2 0 l0 22.2 c0 3.6 -2.6 6.2 -6.6 6.2 l-8 0 c-4 0 -6.6 -2.6 -6.6 -6.2 l0 -22.2 l5.2 0 l0 21.4 c0 1.4 1.2 2.6 2.8 2.6 l5.2 0 c1.6 0 2.8 -1.2 2.8 -2.6 l0 -21.4 z M148.45 34 c0 3.2 -2.8 6 -6.8 6 l-13.4 0 l0 -4.4 l11.8 0 c2 0 3.2 -1.2 3.2 -2.8 l0 -1.4 c0 -1.6 -0.6 -2.4 -1.6 -2.6 l-8.2 -1.8 c-2.8 -0.6 -5 -2.8 -5 -6.2 l0 -2.8 c0 -3.2 2.8 -6 6.8 -6 l12.4 0 l0 3 l-1.4 1.4 l-9.4 0 c-2 0 -3.2 1.2 -3.2 2.8 l0 1 c0 1.6 0.6 2.2 1.6 2.4 l8.2 1.8 c2.8 0.6 5 2.8 5 6.4 l0 3.2 z" fill="#FFFFFF"></path></g></svg>